<svg xmlns="http://www.w3.org/2000/svg" xmlns:xlink="http://www.w3.org/1999/xlink" id="Layer_1" x="0px" y="0px" viewBox="0 0 518 268.4" style="enable-background:new 0 0 518 268.4;" xml:space="preserve">
<style type="text/css">
	.st0{fill:#FB9301;}
	.st1{fill:#FFFFFF;}
	.st2{fill:#404041;}
	.st3{font-family:'Roboto-Black';}
	.st4{font-size:43.0796px;}
</style>
<path class="st0" d="M354.9,99.8c0.1,5.9-0.1,12.7-1.5,19.4c-2,9.6-6.2,18.3-11.6,26.3c-8.7,12.9-19.9,23-34,29.6  c-7.6,3.6-15.6,6.4-24,7.6c-2.9,0.4-5.8,0.6-8.8,0.6c-7.4-0.1-14.8-0.4-22.1-1.7c-9.3-1.7-17.9-5.5-26-10.4  c-12.1-7.3-21.5-17.3-29.3-29c-1.2-1.8-2.1-3.8-2.7-6c-0.2-0.8,0-1.2,0.7-1.5c3.5-1.6,6.9-3.2,10.4-4.8c0.4-0.2,0.6-0.3,0.8,0.2  c4.8,11.1,12.8,19.5,22.4,26.5c9.6,7,20.4,11.5,32.2,13c11.7,1.5,23.1-0.1,34.2-4.1c22.1-7.9,36.2-23.6,43.3-45.6  c12.1-37.8-10.4-77.7-47.7-88.9c-7.9-2.4-16-3.1-24.3-2.4c-1.7,0.2-3.4,0.2-5.1,0.3c-0.8,0-0.9,0.4-0.8,1c0.2,0.8,0.5,1.7,0.7,2.5  c0.6,2.1,0.5,2.3-1.6,1.9c-2.4-0.4-4.8-0.9-7.2-1.5c-4.9-1.1-9.8-2.6-14.9-3.2c-0.8-0.1-0.8-0.5-0.5-1c0.9-1.7,2.1-3.2,3.5-4.5  c3.6-3.3,6.5-7.1,9.7-10.7c1-1.1,2-2.1,3.1-2.9c0.5-0.4,0.8-0.3,1,0.4c0.3,1.2,0.8,2.3,1.1,3.4c0.3,1.3,1.1,1.6,2.3,1.4  c2.5-0.4,5-0.6,7.6-0.9c6.4-0.7,12.8-0.2,19.1,0.9c18.8,3.5,34.9,12.1,48.1,26c11,11.7,17.7,25.7,21.1,41.3c0.4,1.8,0.5,3.6,0.5,5.4  C354.9,92,354.9,95.5,354.9,99.8z"></path>
<path class="st2" d="M179.5,102.7c7.7,0,15.3,0,22.9,0c1,0,1.4,0.2,1.3,1.3c-0.1,2.8-0.1,5.6,0,8.3c0,0.8-0.2,1-1,1  c-12.5,0-24.9,0-37.4,0c-0.8,0-0.9-0.3-1-1c-0.3-6.8,2.3-12.3,7.1-17c3.2-3.1,6.9-5.7,10.4-8.3c2.5-1.8,5-3.7,7-6.1  c3-3.5,3.6-7.4,1.6-11.6c-0.6-1.2-1.5-2.1-2.7-2.7c-1.3-0.6-2.7-0.9-4.2-0.9c-2.8,0-5,1.4-6.2,4.2c-0.8,1.8-1,3.7-1.1,5.7  c0,0.8-0.3,1-1,1c-3.1,0-6.2,0-9.3,0c-0.6,0-0.9,0-1-0.8c-0.2-5.1,1-9.7,4-13.8c2.4-3.3,5.5-5.2,9.5-5.7c4.1-0.5,8.2-0.8,12.2,0.4  c12.4,3.5,17,17.7,9.3,28.4c-1.8,2.4-3.9,4.5-6.3,6.2c-3.3,2.4-6.6,4.8-9.9,7.2C181.4,100,180.2,101.2,179.5,102.7z"></path>
<path class="st2" d="M242.4,74c0,5.4,0,10.9,0,16.3c0,0.9,0.2,1.2,1.1,1.1c1.3-0.1,2.6-0.1,3.9-0.1c1.2,0,1.9,0.7,1.9,1.9  c0,2.3,0,4.6,0,6.9c0,0.7-0.4,0.7-0.9,0.7c-1.7,0-3.4,0-5.1,0c-0.7,0-0.9,0.2-0.9,0.9c0,3.5,0,7,0,10.5c0,0.8-0.2,1.1-1.1,1.1  c-3.1,0-6.1-0.1-9.2,0c-0.9,0-1-0.3-1-1.1c0-3.4,0-6.8,0-10.2c0-1-0.3-1.2-1.2-1.2c-6.7,0-13.4,0-20.1,0c-1,0-1.2-0.3-1.2-1.2  c0.1-2,0.1-4.1,0-6.1c-0.1-1.6,0.3-3,1.1-4.4c2.6-5,5.8-9.7,8.7-14.5c3.3-5.4,6.6-10.9,9.9-16.4c0.7-1.1,1.5-1.8,2.9-1.8  c3.5,0,7,0.1,10.5,0c1,0,0.7,0.6,0.7,1.1C242.4,63.1,242.4,68.5,242.4,74z M231.2,69.3c-0.1,0-0.2-0.1-0.3-0.1  c-4.7,7.1-8.8,14.5-12.9,22.2c4.4,0,8.4,0,12.5,0c0.9,0,0.7-0.6,0.7-1.1c0-4.4,0-8.7,0-13.1C231.2,74.6,231.2,72,231.2,69.3z"></path>
<path class="st2" d="M313.6,106.4c-0.9,0-1.6,0-2.3,0c-7.9,0-15.9,0-23.8,0c-1.1,0-1.4-0.3-1.4-1.4c0.1-2.4,0-4.8,0-7.1  c0-1.7,0.4-2.1,2.1-2.1c12.5,0,24.9,0,37.4,0c0.9,0,1.1,0.3,1.1,1.1c-0.1,1.9-0.1,3.9,0,5.8c0.1,1.4-0.4,2.6-1.3,3.7  c-3.3,4.1-6.4,8.3-9.1,12.8c-4.9,8.1-8.5,16.7-9.8,26.1c-0.3,2.1-0.4,4.3-0.5,6.4c0,0.6-0.2,0.8-0.8,0.8c-3,0-6,0.1-9.1,0.1  c-2,0-2.5-0.5-2.4-2.5c0.2-5.8,1.9-11.3,3.9-16.7c3.3-8.9,8.2-16.8,13.8-24.3C312.3,108.4,312.8,107.5,313.6,106.4z"></path>
<path class="st0" d="M302.8,49c-0.1,0.3-0.4,1-0.7,1.6c-7.8,13.1-15.2,26.5-22.9,39.7c-0.5,0.8-0.8,1-1.6,0.5  c-1.8-1.1-3.6-2.1-5.5-3.2c-0.8-0.4-1-0.8-0.5-1.7c5.7-9.7,11.2-19.6,16.9-29.3c2.2-3.7,4.5-7.3,6.3-11.2c0.4-0.9,0.9-1.1,1.9-0.7  c2.1,0.8,3.9,1.9,5.7,3.1C302.7,48.2,303,48.3,302.8,49z"></path>
<path class="st0" d="M249.5,140c-0.5-0.2-1-0.3-1.5-0.6c-1.7-0.9-3.4-1.9-5.1-2.8c-0.6-0.3-0.4-0.7-0.3-1.1c0.6-1.4,1.4-2.7,2.2-4  c4.6-7.7,9.3-15.3,13.8-23c0.5-0.8,0.9-0.9,1.6-0.4c1.6,0.9,3.2,1.8,4.8,2.6c0.9,0.5,1,1,0.7,1.9c-1.3,3-3,5.9-4.6,8.7  c-3.6,6-7.2,12-10.8,17.9C250.1,139.6,250.1,140.1,249.5,140z"></path>
<path class="st0" d="M260.5,99.8c0-4.3,4.2-8.3,8.8-8.3c5,0,8.4,3.3,8.4,8.2c0,5.1-3.5,9.3-8,9.2  C264.2,108.7,260.7,105.6,260.5,99.8z"></path>
<rect x="108" y="197.2" class="st0" width="312.5" height="53.8"></rect>
<text transform="matrix(1 0 0 1 117.1893 241.3924)" class="st1 st3 st4">020 7885 0555</text>
</svg>