<svg xmlns="http://www.w3.org/2000/svg" xmlns:xlink="http://www.w3.org/1999/xlink" viewBox="0 0 230 60" width="230px" height="60px">
<g id="manufacturing">
	<path id="g" style="fill:#FFFFFF;" d="M215.96,48.19c-0.21-0.51-0.32-1.05-0.32-1.6c0-0.56,0.11-1.09,0.32-1.61
		c0.21-0.51,0.5-0.96,0.86-1.32c0.36-0.37,0.79-0.66,1.29-0.88c0.5-0.22,1.02-0.33,1.57-0.33c0.51,0,1,0.09,1.49,0.28
		c0.48,0.19,0.92,0.45,1.32,0.79c0.05,0.04,0.07,0.1,0.07,0.16c0,0.06-0.02,0.12-0.06,0.16l-0.71,0.75c-0.09,0.09-0.19,0.1-0.3,0
		c-0.5-0.44-1.08-0.66-1.74-0.66c-0.47,0-0.9,0.12-1.3,0.36c-0.4,0.24-0.71,0.56-0.94,0.97c-0.23,0.41-0.34,0.84-0.34,1.31
		c0,0.47,0.11,0.9,0.34,1.31c0.23,0.4,0.54,0.73,0.94,0.97c0.4,0.24,0.84,0.36,1.31,0.36c0.42,0,0.88-0.1,1.37-0.29v-0.99h-0.92
		c-0.06,0-0.12-0.02-0.16-0.06c-0.04-0.04-0.06-0.09-0.06-0.14v-0.89c0-0.06,0.02-0.11,0.06-0.15c0.04-0.04,0.09-0.06,0.16-0.06
		h2.21c0.06,0,0.1,0.02,0.15,0.07c0.04,0.04,0.06,0.1,0.06,0.15v2.95c0,0.07-0.03,0.13-0.09,0.18c-0.03,0.02-0.08,0.04-0.14,0.08
		c-0.06,0.03-0.19,0.09-0.38,0.18c-0.19,0.09-0.4,0.16-0.61,0.23c-0.21,0.07-0.47,0.13-0.79,0.18c-0.31,0.05-0.63,0.08-0.94,0.08
		c-0.55,0-1.07-0.11-1.57-0.32s-0.93-0.51-1.29-0.87C216.46,49.14,216.17,48.7,215.96,48.19z"/>
	<path id="n_2_" style="fill:#FFFFFF;" d="M201.9,50.39v-7.73c0-0.06,0.02-0.1,0.07-0.15c0.04-0.04,0.1-0.06,0.15-0.06h0.17
		c0.08,0,0.14,0.03,0.2,0.08l4.69,5h0.02v-4.75c0-0.06,0.02-0.11,0.06-0.15c0.04-0.04,0.09-0.06,0.16-0.06h1.06
		c0.06,0,0.11,0.02,0.15,0.07s0.06,0.1,0.06,0.15v7.74c0,0.06-0.02,0.1-0.06,0.14s-0.09,0.06-0.15,0.06h-0.16
		c-0.08,0-0.14-0.03-0.2-0.08l-4.71-5.2h-0.02v4.94c0,0.06-0.02,0.11-0.06,0.15c-0.04,0.04-0.09,0.06-0.16,0.06h-1.05
		c-0.06,0-0.11-0.02-0.15-0.07C201.92,50.49,201.9,50.44,201.9,50.39z"/>
	<path id="i" style="fill:#FFFFFF;" d="M192.97,50.39v-7.61c0-0.06,0.02-0.11,0.07-0.15c0.04-0.04,0.09-0.07,0.15-0.07h1.06
		c0.06,0,0.11,0.02,0.15,0.07c0.04,0.04,0.07,0.1,0.07,0.15v7.61c0,0.06-0.02,0.11-0.07,0.15c-0.04,0.05-0.09,0.07-0.15,0.07h-1.06
		c-0.06,0-0.11-0.02-0.15-0.07C192.99,50.49,192.97,50.44,192.97,50.39z"/>
	<path id="r" style="fill:#FFFFFF;" d="M179.92,50.39v-7.61c0-0.06,0.02-0.11,0.06-0.15c0.04-0.04,0.09-0.06,0.16-0.06h3.29
		c0.69,0,1.28,0.24,1.77,0.72c0.49,0.48,0.73,1.07,0.73,1.75c0,0.53-0.16,1-0.47,1.42c-0.31,0.42-0.72,0.74-1.23,0.95l1.58,2.88
		c0.04,0.07,0.04,0.15,0,0.22c-0.04,0.07-0.11,0.11-0.2,0.11h-1.21c-0.09,0-0.15-0.03-0.19-0.1l-1.53-2.99h-1.28v2.88
		c0,0.06-0.02,0.1-0.07,0.15c-0.04,0.04-0.1,0.07-0.15,0.07h-1.06c-0.06,0-0.12-0.02-0.16-0.06
		C179.94,50.5,179.92,50.45,179.92,50.39z M181.42,46.23h1.87c0.31,0,0.57-0.12,0.8-0.35c0.23-0.23,0.34-0.51,0.34-0.83
		c0-0.3-0.11-0.57-0.34-0.79c-0.23-0.22-0.49-0.33-0.8-0.33h-1.87V46.23z"/>
	<path id="u" style="fill:#FFFFFF;" d="M166.17,47.65v-4.88c0-0.06,0.02-0.11,0.07-0.15c0.04-0.04,0.1-0.07,0.15-0.07h1.09
		c0.06,0,0.12,0.02,0.16,0.06c0.04,0.04,0.06,0.09,0.06,0.15v4.79c0,0.49,0.15,0.89,0.46,1.2c0.31,0.31,0.71,0.46,1.21,0.46
		c0.5,0,0.9-0.15,1.21-0.46c0.31-0.31,0.47-0.7,0.47-1.18v-4.8c0-0.06,0.02-0.11,0.06-0.15c0.04-0.04,0.09-0.06,0.16-0.06h1.09
		c0.06,0,0.11,0.02,0.15,0.07c0.04,0.04,0.06,0.1,0.06,0.15v4.88c0,0.43-0.08,0.83-0.25,1.21c-0.17,0.38-0.39,0.7-0.67,0.97
		c-0.28,0.27-0.62,0.48-1.02,0.64c-0.4,0.16-0.82,0.24-1.27,0.24c-0.6,0-1.14-0.13-1.62-0.4c-0.49-0.27-0.87-0.63-1.15-1.1
		S166.17,48.23,166.17,47.65z"/>
	<path id="t" style="fill:#FFFFFF;" d="M154.04,43.72v-0.94c0-0.06,0.02-0.11,0.06-0.15c0.04-0.04,0.09-0.06,0.16-0.06h5.03
		c0.06,0,0.12,0.02,0.16,0.06s0.06,0.09,0.06,0.15v0.94c0,0.06-0.02,0.11-0.06,0.15c-0.04,0.04-0.09,0.06-0.16,0.06h-1.77v6.45
		c0,0.06-0.02,0.11-0.07,0.15c-0.04,0.05-0.09,0.07-0.15,0.07h-1.06c-0.06,0-0.11-0.02-0.15-0.07c-0.04-0.04-0.06-0.1-0.06-0.15
		v-6.45h-1.77c-0.06,0-0.12-0.02-0.16-0.06C154.06,43.83,154.04,43.78,154.04,43.72z"/>
	<path id="c" style="fill:#FFFFFF;" d="M140.88,46.57c0-0.56,0.11-1.1,0.33-1.61c0.22-0.51,0.51-0.95,0.88-1.31
		c0.37-0.37,0.81-0.66,1.32-0.88c0.51-0.22,1.05-0.33,1.62-0.33c0.57,0,1.07,0.09,1.52,0.26c0.44,0.18,0.87,0.44,1.27,0.8
		c0.05,0.04,0.07,0.1,0.08,0.16c0,0.06-0.02,0.12-0.06,0.16l-0.71,0.72c-0.04,0.04-0.08,0.07-0.14,0.07c-0.06,0-0.11-0.02-0.15-0.07
		c-0.25-0.23-0.53-0.41-0.84-0.54c-0.31-0.13-0.63-0.19-0.96-0.19c-0.49,0-0.93,0.12-1.33,0.37c-0.4,0.25-0.72,0.58-0.94,0.99
		c-0.22,0.42-0.34,0.86-0.34,1.35c0,0.74,0.25,1.37,0.76,1.9c0.5,0.53,1.13,0.79,1.86,0.79c0.64,0,1.24-0.22,1.79-0.66
		c0.05-0.04,0.1-0.06,0.15-0.05c0.06,0,0.1,0.02,0.14,0.05l0.73,0.75c0.04,0.04,0.06,0.08,0.06,0.14c0,0.07-0.02,0.12-0.07,0.17
		c-0.76,0.74-1.7,1.1-2.79,1.1c-0.38,0-0.75-0.05-1.11-0.15c-0.36-0.1-0.69-0.23-0.99-0.41c-0.3-0.18-0.58-0.39-0.84-0.65
		c-0.25-0.25-0.47-0.53-0.65-0.84c-0.18-0.3-0.32-0.64-0.41-1C140.93,47.32,140.88,46.95,140.88,46.57z"/>
	<path id="a_1_" style="fill:#FFFFFF;" d="M127.44,50.31l3.58-7.74c0.04-0.08,0.11-0.12,0.2-0.12h0.11c0.09,0,0.16,0.04,0.2,0.12
		l3.54,7.74c0.02,0.03,0.02,0.07,0.02,0.1c0,0.04-0.01,0.08-0.03,0.11c-0.04,0.06-0.1,0.09-0.19,0.09h-1c-0.09,0-0.15-0.02-0.2-0.05
		c-0.05-0.04-0.09-0.09-0.13-0.18l-0.57-1.23h-3.43l-0.57,1.23c-0.06,0.15-0.17,0.23-0.33,0.23h-1c-0.09,0-0.15-0.03-0.19-0.09
		c-0.02-0.03-0.03-0.07-0.03-0.11C127.42,50.38,127.43,50.34,127.44,50.31z M130.1,47.86h2.31l-1.15-2.53h-0.03L130.1,47.86z"/>
	<path id="f" style="fill:#FFFFFF;" d="M117.07,50.39v-7.61c0-0.06,0.02-0.11,0.06-0.15s0.09-0.06,0.16-0.06h4.68
		c0.06,0,0.12,0.02,0.15,0.06s0.06,0.09,0.06,0.15v0.94c0,0.06-0.02,0.11-0.06,0.15s-0.09,0.06-0.15,0.06h-3.41v2.16h2.84
		c0.06,0,0.11,0.02,0.15,0.07c0.04,0.04,0.07,0.1,0.07,0.15v0.94c0,0.06-0.02,0.11-0.07,0.15c-0.04,0.04-0.1,0.07-0.15,0.07h-2.84
		v2.91c0,0.06-0.02,0.11-0.07,0.15c-0.04,0.05-0.1,0.07-0.15,0.07h-1.06c-0.06,0-0.12-0.02-0.16-0.06S117.07,50.45,117.07,50.39z"/>
	<path id="u_1_" style="fill:#FFFFFF;" d="M103.32,47.65v-4.88c0-0.06,0.02-0.11,0.07-0.15c0.05-0.04,0.1-0.07,0.15-0.07h1.09
		c0.06,0,0.12,0.02,0.16,0.06c0.04,0.04,0.06,0.09,0.06,0.15v4.79c0,0.49,0.15,0.89,0.46,1.2c0.31,0.31,0.71,0.46,1.21,0.46
		c0.5,0,0.9-0.15,1.21-0.46c0.31-0.31,0.47-0.7,0.47-1.18v-4.8c0-0.06,0.02-0.11,0.06-0.15c0.04-0.04,0.09-0.06,0.16-0.06h1.09
		c0.06,0,0.11,0.02,0.15,0.07c0.04,0.04,0.06,0.1,0.06,0.15v4.88c0,0.43-0.08,0.83-0.25,1.21c-0.16,0.38-0.39,0.7-0.67,0.97
		c-0.28,0.27-0.62,0.48-1.02,0.64c-0.4,0.16-0.82,0.24-1.27,0.24c-0.6,0-1.14-0.13-1.62-0.4c-0.49-0.27-0.87-0.63-1.15-1.1
		C103.46,48.75,103.32,48.23,103.32,47.65z"/>
	<path id="n_1_" style="fill:#FFFFFF;" d="M89.19,50.39v-7.73c0-0.06,0.02-0.1,0.07-0.15c0.05-0.04,0.1-0.06,0.15-0.06h0.17
		c0.08,0,0.14,0.03,0.2,0.08l4.69,5h0.02v-4.75c0-0.06,0.02-0.11,0.06-0.15c0.04-0.04,0.09-0.06,0.16-0.06h1.06
		c0.06,0,0.11,0.02,0.15,0.07c0.04,0.04,0.06,0.1,0.06,0.15v7.74c0,0.06-0.02,0.1-0.06,0.14c-0.04,0.04-0.09,0.06-0.15,0.06h-0.16
		c-0.08,0-0.14-0.03-0.2-0.08l-4.71-5.2h-0.02v4.94c0,0.06-0.02,0.11-0.06,0.15c-0.04,0.04-0.09,0.06-0.16,0.06h-1.05
		c-0.06,0-0.11-0.02-0.15-0.07C89.21,50.49,89.19,50.44,89.19,50.39z"/>
	<path id="a_2_" style="fill:#FFFFFF;" d="M75.09,50.31l3.58-7.74c0.04-0.08,0.11-0.12,0.2-0.12h0.11c0.09,0,0.16,0.04,0.2,0.12
		l3.54,7.74c0.02,0.03,0.02,0.07,0.02,0.1c0,0.04-0.01,0.08-0.03,0.11c-0.04,0.06-0.1,0.09-0.19,0.09h-1c-0.09,0-0.15-0.02-0.2-0.05
		s-0.09-0.09-0.13-0.18l-0.57-1.23h-3.44l-0.57,1.23c-0.06,0.15-0.17,0.23-0.33,0.23h-1c-0.09,0-0.15-0.03-0.19-0.09
		c-0.02-0.03-0.03-0.07-0.03-0.11C75.06,50.38,75.07,50.34,75.09,50.31z M77.74,47.86h2.31l-1.15-2.53h-0.03L77.74,47.86z"/>
	<path id="m" style="fill:#FFFFFF;" d="M60.06,50.34l1.37-7.72c0.01-0.12,0.08-0.17,0.21-0.17h0.19c0.09,0,0.15,0.04,0.19,0.11
		l2.53,5.43h0.03l2.53-5.43c0.04-0.07,0.1-0.11,0.19-0.11h0.19c0.12,0,0.19,0.06,0.21,0.17l1.36,7.72c0,0.02,0.01,0.04,0.01,0.06
		c0,0.05-0.01,0.09-0.04,0.13c-0.04,0.05-0.1,0.07-0.17,0.07H67.8c-0.05,0-0.09-0.02-0.14-0.06c-0.04-0.04-0.07-0.08-0.08-0.12
		l-0.68-4.35h-0.03l-2.02,4.52c-0.03,0.08-0.09,0.12-0.2,0.12h-0.2c-0.09,0-0.16-0.04-0.2-0.12l-2.04-4.52h-0.03l-0.67,4.35
		c-0.01,0.04-0.03,0.08-0.07,0.12c-0.04,0.04-0.09,0.06-0.13,0.06h-1.03c-0.07,0-0.13-0.02-0.17-0.07
		c-0.03-0.04-0.05-0.09-0.05-0.15C60.06,50.38,60.06,50.36,60.06,50.34z"/>
</g>
<g id="woodland">
	<path id="d" style="fill:#FFFFFF;" d="M217.67,31.79v-9.06c-0.98-0.32-2.12-0.55-3.22-0.55c-1.04,0-1.91,0.19-2.19,0.53
		c-0.81,0.95-1.49,2.99-1.49,4.9c0,3.37,1.17,6.53,3.16,6.53C214.83,34.13,216.27,33.15,217.67,31.79L217.67,31.79z M213.84,18.73
		L213.84,18.73c1.29,0,2.63,0.32,3.82,0.81v-6.52c-1.08-0.26-2.19-0.49-3.25-0.6c-0.23-0.7-0.3-1.4-0.15-2.14
		c2.55-0.87,5.37-1.28,8.13-1.38l0.42,0.42c-0.11,3.78-0.15,6.19-0.15,10.35V31.5c0,0.78,0.04,1.85,0.09,2.69
		c0.87-0.09,1.65-0.26,2.42-0.46c0.44,0.34,0.72,0.89,0.72,1.57c-1.33,1.36-3.39,2.57-5.28,2.57c-1.1,0-2.06-1.34-2.57-3.05
		c-1.66,1.78-3.54,3.05-5.63,3.05c-4.5,0-6.73-4.1-6.73-9.23C205.67,23.01,209.66,18.73,213.84,18.73z"/>
	<path id="n" style="fill:#FFFFFF;" d="M189.31,18.96c0.17,0.42,0.4,1.15,0.61,1.89c1.65-1.31,3.54-2.23,5.9-2.23
		c2.97,0,5.79,1.82,5.79,5.92v6.96c0,1.02,0.04,1.93,0.11,2.84c0.98,0.11,2.16,0.38,2.84,0.68c0,0.78-0.07,1.91-0.26,2.36
		c-0.98-0.04-3.69-0.08-5.07-0.08c-2.04,0-3.42,0.08-4.67,0.08c-0.11-0.42-0.21-1.51-0.21-2.36c0.72-0.15,1.55-0.38,2.12-0.64
		c0.11-0.83,0.15-1.36,0.15-2.12V26.6c0-2.54-0.42-4.41-3.08-4.41c-1.06,0-2.19,0.45-3.27,1.1v8.21c0,1.02,0.04,1.93,0.11,2.84
		c0.93,0.11,1.95,0.38,2.59,0.68c0,0.78-0.08,1.91-0.23,2.36c-0.96-0.04-3.48-0.08-4.88-0.08c-2.42,0-4.07,0.08-5.5,0.08
		c-0.15-0.42-0.27-1.51-0.27-2.36c1.06-0.11,2.27-0.38,3.03-0.64c0.11-0.83,0.15-1.36,0.15-2.12v-9.48c-0.98-0.3-2-0.49-2.99-0.61
		c-0.25-0.72-0.32-1.48-0.15-2.16c2-0.72,4.29-1.19,6.64-1.36L189.31,18.96z"/>
	<path id="a" style="fill:#FFFFFF;" d="M172.77,33.05v-4.12c-2.43,0.27-4.19,0.72-4.57,1.02c-0.45,0.36-0.79,1.32-0.79,1.97
		c0,1.19,0.9,2.27,2.5,2.27C170.7,34.19,171.68,33.7,172.77,33.05L172.77,33.05z M172.53,25.71L172.53,25.71
		c-0.07-2.36-0.64-3.99-2.48-3.99c-0.78,0-1.65,0.04-2.42,0.19c-0.26,0.91-0.3,1.91-0.3,2.88c-1.04,0.49-2.04,0.68-3.1,0.42
		c-0.74-1.13-1.17-2.69-1.17-4.44c2.18-1.27,5.11-2.1,8.04-2.1c2.38,0,6.53,0.85,6.53,6.13v6.71c0,0.78-0.01,1.85,0.07,2.69
		c0.85-0.09,1.61-0.26,2.4-0.46c0.41,0.34,0.71,0.89,0.71,1.57c-1.32,1.36-3.39,2.57-5.3,2.57c-0.93,0-1.84-1-2.4-2.46
		c-1.78,1.42-3.92,2.46-5.71,2.46c-3.31,0-5.17-1.65-5.17-4.71C162.22,29.04,168.14,26.72,172.53,25.71z"/>
	<path id="l" style="fill:#FFFFFF;" d="M157.63,31.5c0,1.02-0.02,1.93,0.05,2.84c1.02,0.11,2.13,0.38,2.81,0.68
		c0,0.78-0.09,1.91-0.24,2.36c-1.02-0.04-3.68-0.08-5.23-0.08c-2.33,0-3.98,0.08-5.41,0.08c-0.15-0.42-0.27-1.51-0.27-2.36
		c1.06-0.11,2.26-0.38,3.02-0.64c0.11-0.83,0.14-1.36,0.14-2.12V13.03c-1.08-0.26-2-0.49-2.98-0.6c-0.23-0.7-0.3-1.4-0.15-2.14
		c2.48-0.87,5.2-1.28,7.85-1.38l0.5,0.42c-0.11,3.78-0.09,6.19-0.09,10.35V31.5z"/>
	<path id="d_1_" style="fill:#FFFFFF;" d="M140.34,31.79v-9.06c-1.08-0.32-2.12-0.55-3.22-0.55c-1.04,0-1.91,0.19-2.2,0.53
		c-0.81,0.95-1.49,2.99-1.49,4.9c0,3.37,1.17,6.53,3.16,6.53C137.5,34.13,138.72,33.15,140.34,31.79L140.34,31.79z M136.52,18.73
		L136.52,18.73c1.29,0,2.74,0.32,3.82,0.81v-6.52c-1.08-0.26-2.19-0.49-3.25-0.6c-0.23-0.7-0.3-1.4-0.15-2.14
		c2.55-0.87,5.37-1.28,8.13-1.38l0.49,0.42c-0.11,3.78-0.08,6.19-0.08,10.35V31.5c0,0.78-0.03,1.85,0.02,2.69
		c0.87-0.09,1.61-0.26,2.39-0.46c0.44,0.34,0.7,0.89,0.7,1.57c-1.32,1.36-3.39,2.57-5.29,2.57c-1.1,0-2.07-1.34-2.58-3.05
		c-1.67,1.78-3.54,3.05-5.64,3.05c-4.5,0-6.73-4.1-6.73-9.23C128.35,23.01,132.34,18.73,136.52,18.73z"/>
	<path id="o_1_" style="fill:#FFFFFF;" d="M119.37,33.83c0.83-1.06,1.48-2.86,1.48-4.92c0-2.88-1.1-6.85-4.22-6.85
		c-0.64,0-1.7,0.17-2.02,0.58c-0.84,1.05-1.48,2.88-1.48,4.94c0,2.88,1.1,6.85,4.22,6.85C117.99,34.43,119.04,34.26,119.37,33.83
		L119.37,33.83z M125.93,27.95L125.93,27.95c0,4.67-3.37,9.93-9.19,9.93c-5.85,0-8.7-3.92-8.7-9.33c0-4.67,3.37-9.93,9.19-9.93
		C123.19,18.62,125.93,22.63,125.93,27.95z"/>
	<path id="o" style="fill:#FFFFFF;" d="M99.05,33.83c0.83-1.06,1.48-2.86,1.48-4.92c0-2.88-1.1-6.85-4.22-6.85
		c-0.64,0-1.7,0.17-2.02,0.58c-0.84,1.05-1.48,2.88-1.48,4.94c0,2.88,1.1,6.85,4.22,6.85C97.67,34.43,98.72,34.26,99.05,33.83
		L99.05,33.83z M105.62,27.95L105.62,27.95c0,4.67-3.37,9.93-9.19,9.93c-5.84,0-8.7-3.92-8.7-9.33c0-4.67,3.37-9.93,9.19-9.93
		C102.87,18.62,105.62,22.63,105.62,27.95z"/>
	<path id="w" style="fill:#FFFFFF;" d="M89.47,11.96c-1.19,0.08-3.12,0.08-4.65,0.08c-1.85,0-3.46-0.08-4.88-0.08
		c-0.15,0.79-0.23,1.61-0.23,2.42l3.57,0.62l-3.76,16.18l-4.81-19.38c-1.76,0-3.86,0.25-5.07,0.61l-4.58,18.94L60.98,15.1l3.37-0.66
		c0.04-0.89-0.04-1.7-0.23-2.48c-1.38,0.08-3.67,0.08-5.58,0.08c-2.18,0-4.03-0.08-5.68-0.08c-0.23,0.81-0.3,1.66-0.3,2.48
		c1.02,0.11,2,0.38,3.03,0.72l6,22.38c1.76,0,4.2-0.25,5.43-0.63l4.3-17.24L76,37.68c1.74,0,4.05-0.25,5.3-0.62l5.56-21.89
		c1.02-0.11,1.97-0.38,2.8-0.72C89.7,13.55,89.62,12.74,89.47,11.96z"/>
</g>
<path id="leaf" style="fill:#A1B237;" d="M14.8,15.78c0.65-0.83,1.01-1.57,0.45-2.03
	c-0.74-0.6-1.54-0.88-2.49-1.14c-2.46-0.68-5.4-0.53-7.84,0.06c-1.1,0.27-0.83-1.76-0.61-2.29C4.86,9.01,5.5,9.1,7.02,9.22
	c2.57,0.2,5.43,1.09,7.77,2.13c14.71,6.57,21.15,24.24,24.43,32.98c-0.08-1.09-0.12-2.22-0.28-3.3
	c-2.14-14.3-6.86-23.45-17.82-28.65c1.26-0.35,3.92-0.98,5.72-1.16c9.18-0.94,17.33,2.06,18.39,12.44c0.84,8.2-3.23,19.02-3.2,27.44
	c-6.2-7.93-23.02-5.8-29.14-17.18c-1.12-2.11-1.69-4.12-1.88-6C10.41,21.96,13.19,17.85,14.8,15.78z"/>
</svg>
