<svg xmlns="http://www.w3.org/2000/svg" xmlns:xlink="http://www.w3.org/1999/xlink" x="0px" y="0px" viewBox="0 0 847.6 156" style="enable-background:new 0 0 847.6 156;" xml:space="preserve">
<style type="text/css">
	.st0{fill:#231F20;}
	.st1{fill:#FFFEFF;}
	.st2{fill:url(#SVGID_1_);}
	.st3{fill:url(#SVGID_2_);}
	.st4{fill:#FDAF02;}
	.st5{fill:#CD1F20;}
	.st6{fill:url(#SVGID_3_);}
	.st7{fill:url(#SVGID_4_);}
	.st8{fill:url(#SVGID_5_);}
	.st9{fill:url(#SVGID_6_);}
	.st10{fill:url(#SVGID_7_);}
	.st11{fill:url(#SVGID_8_);}
	.st12{fill:#FF8000;}
	.st13{fill:#FFFFFF;}
	.st14{fill:url(#SVGID_9_);}
	.st15{fill:url(#SVGID_10_);}
	.st16{fill:url(#SVGID_11_);}
	.st17{fill:url(#SVGID_12_);}
	.st18{fill:url(#SVGID_13_);}
	.st19{fill:url(#SVGID_14_);}
	.st20{fill:url(#SVGID_15_);}
	.st21{fill:url(#SVGID_16_);}
	.st22{fill:url(#SVGID_17_);}
	.st23{fill:url(#SVGID_18_);}
	.st24{fill:url(#SVGID_19_);}
	.st25{stroke:#000000;stroke-miterlimit:10;}
	.st26{fill:url(#SVGID_20_);}
	.st27{fill:url(#SVGID_21_);}
</style>
<g id="Background">
</g>
<g id="_x2014_&#xEB;&#xEE;&#xE9;_x5F_2">
	<g>
		<g>
			<path class="st1" d="M426.6,130.8c-31.4-0.9-39.2-23.9-38.8-37.4c0.4-13.9,13.7-28.8,25.4-42c6.2-7,12.1-13.7,14.5-18.6l1.7-5     l1.7,5c2,5,7.6,12,13.4,19.4c11,13.8,23.4,29.5,23,43.3C467.1,109.1,458.1,131.7,426.6,130.8z"></path>
		</g>
		<g>
			<linearGradient id="SVGID_1_" gradientUnits="userSpaceOnUse" x1="389.6271" y1="81.3145" x2="465.6496" y2="81.3145">
				<stop offset="0" style="stop-color:#FB9301"></stop>
				<stop offset="1" style="stop-color:#FB9704"></stop>
			</linearGradient>
			<path class="st2" d="M465.6,95.6c-0.4,12.9-9,34.2-39,33.4c-29.9-0.8-37.4-22.6-37-35.5c0.6-20.8,33.1-45.8,39.7-59.9     c0,0,0,0,0,0c0,0,0,0,0,0C435.1,48,466.2,74.8,465.6,95.6z"></path>
		</g>
		<g>
			<path class="st1" d="M417.3,125.8c0,0-0.4-0.1-1.1-0.3c-0.2-0.1-0.4-0.1-0.6-0.2c-0.2-0.1-0.5-0.2-0.7-0.2     c-0.3-0.1-0.6-0.2-0.9-0.3c-0.3-0.1-0.6-0.2-1-0.4c-1.4-0.5-3-1.2-4.7-2.2c-1.8-1-3.6-2.3-5.5-4c-0.2-0.2-0.5-0.4-0.7-0.7     c-0.2-0.2-0.5-0.4-0.7-0.7c-0.4-0.5-0.9-1-1.3-1.5c-0.9-1-1.7-2.2-2.5-3.4c-0.4-0.6-0.8-1.2-1.1-1.9c-0.3-0.7-0.7-1.3-1-2     c-0.6-1.4-1.2-2.8-1.7-4.3c-0.5-1.5-0.9-3.1-1.1-4.7c-0.3-1.6-0.5-3.2-0.5-4.9c0-0.4,0-0.8,0-1.2l0-0.6l0-0.2l0,0l0-0.1l0-0.1     l0-0.3c0-0.4,0-0.8,0.1-1.2c0.1-0.4,0.1-0.9,0.2-1.3c0.3-1.7,0.7-3.3,1.2-4.9c0.1-0.4,0.3-0.8,0.4-1.2c0.1-0.4,0.3-0.8,0.5-1.2     l0.5-1.2l0.5-1.1l0.3-0.6l0.3-0.6c0.2-0.4,0.4-0.7,0.6-1.1c0.2-0.4,0.4-0.7,0.6-1.1l0.3-0.5l0.3-0.5c0.8-1.4,1.7-2.8,2.6-4.1     c0.5-0.7,0.9-1.3,1.4-1.9c0.5-0.6,0.9-1.3,1.4-1.9c1.9-2.5,3.8-4.8,5.7-6.9c1.8-2.1,3.7-4.1,5.3-5.9c1.7-1.8,3.2-3.5,4.6-4.9     c1.4-1.5,2.6-2.7,3.5-3.8c1-1.1,1.7-1.9,2.3-2.5c0.5-0.6,0.8-0.9,0.8-0.9s-0.3,0.3-0.7,0.9c-0.2,0.3-0.5,0.7-0.9,1.1     c-0.3,0.4-0.7,0.9-1.2,1.5c-0.9,1.1-2,2.5-3.3,4c-1.3,1.5-2.7,3.3-4.3,5.1c-1.6,1.9-3.3,3.9-5.1,6.1c-1.8,2.2-3.6,4.5-5.4,7     c-1.8,2.5-3.6,5.1-5.2,7.8l-0.3,0.5l-0.3,0.5c-0.2,0.3-0.4,0.7-0.6,1.1c-0.2,0.4-0.4,0.7-0.6,1.1l-0.3,0.5l-0.3,0.5l-0.5,1.1     l-0.5,1.1c-0.2,0.4-0.3,0.7-0.4,1.1c-0.1,0.4-0.3,0.7-0.4,1.1c-0.5,1.5-0.9,3.1-1.2,4.6c-0.1,0.4-0.1,0.8-0.2,1.1     c0,0.4-0.1,0.8-0.1,1.2l0,0.3l0,0.1c0,0,0,0.1,0,0l0,0l0,0.1l0,0.6c0,0.4,0,0.8,0,1.2c0.1,3.2,0.6,6.3,1.5,9.2     c0.4,1.4,0.9,2.8,1.5,4.2c0.3,0.7,0.6,1.3,0.9,2c0.3,0.6,0.7,1.2,1,1.8c0.1,0.1,0.2,0.3,0.3,0.4c0.1,0.1,0.2,0.3,0.3,0.4     c0.2,0.3,0.4,0.6,0.6,0.9c0.4,0.5,0.8,1.1,1.2,1.6c0.4,0.5,0.8,1,1.2,1.5c0.2,0.2,0.4,0.5,0.6,0.7c0.2,0.2,0.4,0.5,0.6,0.7     c1.7,1.7,3.5,3.1,5.2,4.2c1.7,1.1,3.2,1.9,4.5,2.5c0.3,0.1,0.6,0.3,0.9,0.4c0.3,0.1,0.6,0.2,0.8,0.3c0.3,0.1,0.5,0.2,0.7,0.3     c0.2,0.1,0.4,0.2,0.6,0.2C416.9,125.6,417.3,125.8,417.3,125.8z"></path>
		</g>
		<g>
			<path class="st1" d="M463.4,92.4c0,0,0,0.1,0.1,0.4c0,0.3,0.1,0.6,0.2,1.1c0.1,0.5,0.1,1.1,0.1,1.8c0,0.7,0,1.4,0,2.3     c0,0.4,0,0.9-0.1,1.3c0,0.5-0.1,0.9-0.2,1.4c-0.1,0.5-0.2,1-0.3,1.5c0,0.1,0,0.3-0.1,0.4c0,0.1-0.1,0.3-0.1,0.4     c-0.1,0.3-0.1,0.5-0.2,0.8c-0.1,0.3-0.1,0.5-0.2,0.8c-0.1,0.3-0.2,0.5-0.2,0.8c-0.2,0.5-0.3,1.1-0.5,1.6     c-0.1,0.3-0.2,0.5-0.3,0.8c-0.1,0.3-0.2,0.5-0.3,0.8c-0.2,0.5-0.5,1-0.7,1.6c-0.5,1-1,2-1.6,3c-0.1,0.2-0.3,0.5-0.4,0.7     c-0.1,0.2-0.3,0.5-0.5,0.7c-0.3,0.4-0.6,0.9-0.9,1.3c-0.7,0.8-1.3,1.6-2,2.3c-0.3,0.3-0.7,0.7-1,1c-0.3,0.3-0.7,0.6-1,0.9     c-0.6,0.6-1.3,1-1.8,1.4c-0.3,0.2-0.5,0.4-0.8,0.6c-0.3,0.2-0.5,0.3-0.7,0.4c-0.8,0.5-1.3,0.8-1.3,0.8s0.4-0.4,1.2-1     c0.2-0.2,0.4-0.3,0.6-0.5c0.2-0.2,0.5-0.4,0.7-0.6c0.5-0.5,1.1-1,1.6-1.6c0.3-0.3,0.6-0.6,0.9-0.9c0.3-0.3,0.6-0.7,0.9-1     c0.6-0.7,1.2-1.5,1.8-2.4c0.3-0.4,0.6-0.9,0.9-1.3c0.1-0.2,0.3-0.4,0.4-0.7c0.1-0.2,0.3-0.5,0.4-0.7c0.6-0.9,1-1.9,1.5-2.9     c0.2-0.5,0.4-1,0.7-1.5c0.2-0.5,0.4-1,0.6-1.5c0.2-0.5,0.4-1,0.5-1.5c0.1-0.3,0.2-0.5,0.2-0.8c0.1-0.3,0.1-0.5,0.2-0.8     c0.1-0.2,0.1-0.5,0.2-0.7c0.1-0.2,0.1-0.5,0.2-0.7c0.1-0.5,0.2-1,0.3-1.4c0.2-0.9,0.4-1.8,0.5-2.6c0.1-0.8,0.2-1.6,0.3-2.3     c0.1-0.7,0.1-1.3,0.1-1.7c0-0.5,0-0.9,0-1.1C463.4,92.5,463.4,92.4,463.4,92.4z"></path>
		</g>
		<g>
			
				<ellipse transform="matrix(0.7812 -0.6242 0.6242 0.7812 19.7967 279.8854)" class="st1" cx="409.2" cy="111.7" rx="4.2" ry="6"></ellipse>
		</g>
		<g>
			<path class="st1" d="M405,103.8c0.4,0.8,0,1.8-0.8,2.2c-0.8,0.4-1.8,0-2.2-0.8c-0.4-0.8,0-1.8,0.8-2.2     C403.6,102.7,404.6,103,405,103.8z"></path>
		</g>
		<g>
			<path class="st1" d="M401.7,100.1c0.2,0.4,0,0.9-0.4,1c-0.4,0.2-0.9,0-1-0.4c-0.2-0.4,0-0.9,0.4-1     C401.1,99.5,401.6,99.7,401.7,100.1z"></path>
		</g>
	</g>
	<linearGradient id="SVGID_2_" gradientUnits="userSpaceOnUse" x1="41.9333" y1="90.2" x2="360.8667" y2="90.2">
		<stop offset="0" style="stop-color:#FB9301"></stop>
		<stop offset="1" style="stop-color:#FB9704"></stop>
	</linearGradient>
	<rect x="41.9" y="87.5" class="st3" width="318.9" height="5.3"></rect>
	<linearGradient id="SVGID_3_" gradientUnits="userSpaceOnUse" x1="489.0667" y1="90.2" x2="808" y2="90.2">
		<stop offset="0" style="stop-color:#FB9301"></stop>
		<stop offset="1" style="stop-color:#FB9704"></stop>
	</linearGradient>
	<rect x="489.1" y="87.5" class="st6" width="318.9" height="5.3"></rect>
</g>
</svg>