<svg xmlns="http://www.w3.org/2000/svg" xmlns:xlink="http://www.w3.org/1999/xlink" id="Layer_1" x="0px" y="0px" viewBox="0 0 90 90" style="enable-background:new 0 0 90 90;" xml:space="preserve">
<style type="text/css">
	.st0{fill:#FB9301;}
	.st1{fill:#FFFFFF;}
</style>
<path class="st0" d="M5.7,39.9L35.3,5.7c3.7-4.3,10.2-4.8,14.5-1L84,34.2c4.3,3.7,4.8,10.2,1,14.5L55.4,83c-3.7,4.3-10.2,4.8-14.5,1  L6.7,54.4C2.4,50.7,2,44.2,5.7,39.9z"></path>
<path class="st1" d="M27,29.4L27,29.4l2.5-2.5c0.1-0.1,0.2-0.1,0.3,0l0,0l5.1,3.1c0.1,0,0.1,0.1,0.1,0.2v2.4c0,0.1,0,0.2,0.1,0.3  c2.9,2.9,5.9,5.9,8.8,8.8c0.1,0.1,0.2,0.1,0.3,0c0.8-0.7,1.5-1.3,2.3-2c0.1-0.1,0.1-0.2,0-0.3c-1.3-1.8-1.8-3.9-1.6-6.1  c0.5-4.1,3.6-7.3,7.6-7.9c0.2,0,0.5,0,0.7-0.1h0.1c0,0.1,0.1,0,0.1,0c0.2,0,0.5,0,0.7,0h0.2c0.4,0,0.8,0.1,1.2,0.1  c0.6,0.1,1.1,0.3,1.7,0.5c-0.1,0-0.1,0.1-0.2,0.1l-5.5,5.4c-0.1,0.1-0.1,0.1,0,0.2c1.6,1.5,3.1,3.1,4.7,4.6c0.1,0.1,0.1,0.1,0.2,0  l5.5-5.5c0-0.1,0.1-0.1,0.2-0.1c1.9,4.5-0.2,9.8-4.8,11.7c-2.5,1.1-5.4,0.9-7.7-0.4c-0.1,0-0.1,0-0.2,0c-0.8,0.8-1.5,1.7-2.3,2.5  c-0.1,0.1-0.1,0.1,0,0.2l1.6,1.6c0.1,0.1,0.1,0.1,0.2,0l0.9-0.9c0.5-0.6,1.4-0.7,2-0.2c0,0,0,0,0,0c0.1,0.1,0.1,0.1,0.2,0.2l2.1,2.2  l6.2,6.3c0.6,0.5,0.6,1.4,0.1,2c0,0,0,0,0,0l-0.1,0.1L56.5,60c-0.5,0.5-1.4,0.5-2,0h0l-8.5-8.6c-0.6-0.5-0.6-1.4-0.1-1.9  c0,0,0,0,0,0l0.1-0.1l0.8-0.8c0.1-0.1,0.1-0.1,0-0.2l-1.5-1.5c-0.1-0.1-0.1-0.1-0.2,0c-0.8,0.9-1.6,1.8-2.4,2.7l-9.2,10  c-0.4,0.4-0.8,0.7-1.4,0.8l-0.4,0.1h-0.6c-0.6-0.1-1.1-0.3-1.5-0.7c-0.4-0.3-0.7-0.7-1.1-1.1c-1-1.1-1-2.8,0.1-3.9l0.2-0.1l13.1-11  c0.1-0.1,0.1-0.2,0-0.3l-8.7-8.7c-0.1-0.1-0.1-0.1-0.2-0.1h-2.5c-0.1,0-0.2-0.1-0.3-0.2l-3.1-4.9C27.1,29.5,27.1,29.4,27,29.4z   M32.3,57.2c0-0.8-0.6-1.4-1.4-1.4c-0.8,0-1.4,0.6-1.4,1.4c0,0.8,0.6,1.4,1.4,1.4l0,0C31.6,58.6,32.2,58,32.3,57.2  C32.2,57.2,32.2,57.2,32.3,57.2L32.3,57.2z"></path>
<path class="st1" d="M54.3,25.4c-0.2,0-0.5,0-0.7,0H54.3z"></path>
</svg>