<svg xmlns="http://www.w3.org/2000/svg" xmlns:xlink="http://www.w3.org/1999/xlink" id="Layer_1" x="0px" y="0px" viewBox="0 0 90 90" style="enable-background:new 0 0 90 90;" xml:space="preserve">
<style type="text/css">
	.st0{fill:#FB9301;}
	.st1{fill:#FFFFFF;}
</style>
<path class="st0" d="M5.7,39.9L35.3,5.7c3.7-4.3,10.2-4.8,14.5-1L84,34.2c4.3,3.7,4.8,10.2,1,14.5L55.4,83c-3.7,4.3-10.2,4.8-14.5,1  L6.7,54.4C2.4,50.7,2,44.2,5.7,39.9z"></path>
<path class="st1" d="M45.3,31.7h17.1c0.7,0,1.3,0.5,1.3,1.2c0,0,0,0,0,0V55c0,0.7-0.5,1.3-1.2,1.3c0,0,0,0,0,0H28.1  c-0.7,0-1.3-0.5-1.3-1.2c0,0,0,0,0,0V33c0-0.7,0.5-1.3,1.2-1.3c0,0,0,0,0,0h0.2L45.3,31.7z M45.3,53.8h10.9c0.1,0,0.2,0,0.2-0.2  c0-0.5,0.1-1,0.3-1.5c0.7-1.9,2.5-3.2,4.5-3.2c0.1,0,0.2,0,0.2-0.1v-9.6c0-0.1,0-0.1-0.1-0.1c-0.4,0-0.8,0-1.1-0.1  c-2.1-0.5-3.6-2.4-3.7-4.6c0-0.2-0.1-0.2-0.2-0.2H34.3c-0.1,0-0.1,0-0.1,0.1c0,0.3,0,0.6-0.1,0.9c-0.5,2.2-2.4,3.9-4.7,3.9  c-0.1,0-0.2,0-0.2,0.2v9.5c0,0.1,0,0.2,0.2,0.2c0.5,0,0.9,0.1,1.4,0.2c2,0.6,3.3,2.5,3.4,4.5c0,0.1,0,0.2,0.2,0.2L45.3,53.8z"></path>
<path class="st1" d="M51.5,44.2c0,2-0.7,4-1.9,5.6c-0.8,1.1-2,1.9-3.3,2.1c-1.4,0.3-2.8-0.1-3.9-0.9c-0.9-0.6-1.6-1.5-2.1-2.5  c-0.8-1.5-1.1-3.1-1.1-4.8c0-2.1,0.7-4.1,2-5.7c0.8-1,1.9-1.8,3.2-2c1.5-0.3,3,0.1,4.2,1c0.8,0.6,1.5,1.5,1.9,2.4  C51.1,40.9,51.5,42.5,51.5,44.2z M44.1,41.5v5.4c0,0.1,0,0.1-0.1,0.1h-2.2c-0.1,0-0.2,0-0.2,0.1v1.6c0,0.1,0,0.1,0.1,0.1h7.2  c0.1,0,0.1,0,0.1-0.1v-1.6c0-0.1,0-0.1-0.1-0.1h-2.1c-0.2,0-0.2,0-0.2-0.2v-8.3c0-0.1,0-0.2-0.2-0.2h-1.9c-0.1,0-0.2,0-0.2,0.1  L41.6,41c-0.1,0.1-0.1,0.1,0,0.2c0.4,0.5,0.9,0.9,1.3,1.4c0.1,0.1,0.1,0.1,0.2,0C43.4,42.2,43.8,41.9,44.1,41.5z"></path>
</svg>