<svg xmlns="http://www.w3.org/2000/svg" xmlns:xlink="http://www.w3.org/1999/xlink" id="Layer_1" x="0px" y="0px" viewBox="0 0 90 90" style="enable-background:new 0 0 90 90;" xml:space="preserve">
<style type="text/css">
	.st0{fill:#FB9301;}
	.st1{fill:#FFFFFF;}
	.st2{font-family:'Poppins-Bold';}
	.st3{font-size:2.14px;}
</style>
<path class="st0" d="M5.2,39.9L34.8,5.7C38.5,1.4,45,1,49.3,4.7l34.1,29.5c4.3,3.7,4.8,10.2,1,14.5L54.8,83  c-3.7,4.3-10.2,4.8-14.5,1L6.2,54.4C1.9,50.7,1.4,44.2,5.2,39.9z"></path>
<path class="st1" d="M43.1,59.4c-0.3-0.1-0.6-0.2-0.9-0.2c-3.8-0.5-7.4-2.3-10-5.1c-1.8-1.9-3.1-4.3-3.8-6.8  c-0.3-1.1-0.5-2.3-0.5-3.5c0-0.3,0-0.4,0.3-0.4l0,0c0.7,0,0.6,0,0.7,0.7c0.1,1,0.2,2,0.5,3c0.1,0.3,0.3,0.4,0.6,0.4h19.9  c0.2,0,0.4-0.1,0.5,0s-0.1,0.3-0.2,0.5c-0.6,0.9-1.2,1.8-1.8,2.7c-0.2,0.2-0.2,0.6,0,0.8c0.6,0.9,1.2,1.8,1.8,2.6  c0.1,0.1,0.2,0.2,0.1,0.3s-0.2,0-0.3,0H34.5c-0.1,0-0.2,0-0.3,0.1c0.5,0.5,1,0.9,1.6,1.2c1.9,1.3,4.1,2.1,6.3,2.4  c8.3,1.2,16-4.7,17.2-13c0.2-1.2,0.2-2.5,0.1-3.7c-0.1-0.2,0-0.5,0.2-0.6c0.2-0.2,0.4-0.3,0.6-0.6c0.1,0.3,0.1,0.7,0.2,1  c0.5,4-0.5,8-2.8,11.3c-2,2.9-4.9,5.1-8.2,6.1c-1.2,0.4-2.5,0.7-3.8,0.8c-0.1,0-0.1,0-0.2,0.1H45c-0.6-0.1-1.1-0.1-1.7,0L43.1,59.4z   M40,53.5c0.4-0.1,0.7-0.3,1-0.6c0.5-0.6,0.7-1.5,0.3-2.2c-0.3-0.6-1-0.9-1.6-0.6c0,0,0,0,0,0l0,0c-0.1,0-0.2,0-0.1-0.1  c0.1-0.4,0.3-0.7,0.7-0.9c0.3-0.1,0.5,0.1,0.7,0.4s0.5,0.1,0.7,0.1s0.2-0.3,0.1-0.4c-0.1-0.3-0.4-0.6-0.7-0.8  c-0.8-0.2-1.7,0.1-2.1,0.9c-0.5,0.9-0.7,2-0.5,3C38.5,53.1,39.2,53.6,40,53.5z M44.5,48.4h-1c-0.2,0-0.3,0-0.3,0.2  c-0.2,0.7-0.4,1.4-0.6,2.1c-0.1,0.2,0,0.3,0.2,0.3c0.3,0.1,0.6,0,0.8-0.2c0.3-0.2,0.7-0.2,0.9,0.1c0,0,0,0,0,0  c0.1,0.1,0.1,0.1,0.1,0.2c0.1,0.5,0,0.9-0.3,1.3c-0.2,0.3-0.6,0.4-0.9,0.2c0,0,0,0,0,0c-0.1-0.1-0.2-0.2-0.2-0.3  c-0.2-0.4-0.4-0.5-0.8-0.4c-0.2,0-0.2,0.1-0.2,0.3c0.1,0.5,0.4,0.9,0.9,1.1c0.7,0.3,1.4,0.1,1.9-0.3c0.6-0.6,0.8-1.4,0.6-2.2  c-0.2-0.6-0.8-0.9-1.4-0.8c-0.1,0-0.3,0.1-0.4-0.1c0-0.3,0.1-0.6,0.4-0.6h1.2c0.4,0,0.4-0.4,0.4-0.7s-0.3-0.2-0.4-0.2L44.5,48.4z   M36.3,48.3c-0.7,0-1.3,0.4-1.5,1c-0.1,0.3,0,0.3,0.2,0.4s0.6,0.1,0.8-0.3c0.1-0.2,0.4-0.4,0.6-0.3c0.3,0.1,0.4,0.3,0.4,0.6  c0,0.4-0.2,0.6-0.7,0.7s-0.3,0.4-0.3,0.6s0.2,0.2,0.3,0.3c0.2,0.1,0.4,0.2,0.5,0.5c0.1,0.3,0,0.6-0.2,0.8c-0.4,0.3-0.9,0.3-1-0.1  s-0.4-0.4-0.7-0.4s-0.3,0.1-0.3,0.4c0.3,0.8,1.2,1.3,2,1c0.1,0,0.2-0.1,0.3-0.2c0.7-0.3,1.1-1.2,0.7-1.9c0,0,0,0,0,0  c-0.1-0.2-0.1-0.3-0.3-0.4c-0.2-0.2,0-0.2,0.1-0.3c0.6-0.4,0.8-1.2,0.4-1.8C37.2,48.5,36.7,48.3,36.3,48.3L36.3,48.3z"></path>
<path class="st1" d="M61.1,36.1c-0.1,0.5-0.2,1-0.3,1.5c0,0.2-0.1,0.3-0.2,0.4c-1.8,1.7-3.2,3.7-4.3,5.9c-1.1,2.1-1.9,4.2-2.4,6.5  c-0.2,0.6-0.2,0.6-0.8,0.6h-1.9c-0.3,0-0.4-0.1-0.3-0.4c0.5-2.2,1.3-4.4,2.3-6.4c0.9-1.9,2.1-3.7,3.5-5.3c0.1-0.1,0.2-0.2,0.2-0.3  s-0.2-0.1-0.4-0.1h-5.6c-0.5,0-0.5,0-0.4-0.5c0.2-0.7,0.3-1.5,0.4-2.2c0.3-0.3,0.6-0.2,0.9-0.2h9.4v0.1C61.1,35.9,61.1,36,61.1,36.1  z"></path>
<path class="st1" d="M26.7,41.7c0.2-0.1,0.2-0.2,0.2-0.3c0.3-0.9,0.9-1.8,1.6-2.4c1.2-1.3,2.6-2.4,3.7-3.8c0.5-0.4,0.7-1,0.8-1.6  c0-0.6-0.3-1.1-0.9-1.3c-0.6-0.2-1.2,0.1-1.5,0.6c-0.2,0.3-0.3,0.6-0.3,0.9c0,0.2-0.1,0.3-0.4,0.3c-0.6-0.1-1.1-0.2-1.7-0.2  c-0.2,0-0.4-0.1-0.3-0.3c0.2-1.3,1-2.4,2.2-2.9c1.5-0.6,3.2-0.3,4.4,0.8c0.8,1,1,2.5,0.4,3.7c-0.6,1-1.3,1.9-2.2,2.7  c-0.8,0.7-1.5,1.5-2.3,2.3c0.1,0.1,0.2,0.1,0.4,0.1H34c0.3,0,0.4,0.1,0.3,0.4c-0.1,0.5-0.2,1-0.3,1.6c0,0.2-0.2,0.2-0.4,0.2h-7  L26.7,41.7z"></path>
<path class="st1" d="M45.9,26.7c0.1,0.1,0.2,0.2,0.4,0.1c2.9,0.3,5.6,1.4,7.9,3.2c1.5,1.2,2.7,2.5,3.8,4.1c0.1,0.1,0.2,0.2,0.1,0.3  s-0.2,0-0.3,0h-0.4c-0.3,0-0.5-0.1-0.7-0.3c-1.5-2-3.4-3.7-5.6-4.8c-1.8-0.9-3.7-1.4-5.7-1.6c-2.5-0.2-5.1,0.2-7.4,1.3  c-0.8,0.4-1.6,0.8-2.3,1.3c-0.4,0.2-0.9,0.1-1.2-0.3l0,0c-0.1-0.2,0.1-0.2,0.2-0.3c0.8-0.6,1.6-1.1,2.5-1.5c1.4-0.6,2.8-1.1,4.3-1.4  c0.3,0,0.6,0.1,0.8-0.2H45.9z"></path>
<path class="st1" d="M61.2,35.7h-9.4c-0.3,0-0.7-0.2-0.9,0.2c0-0.2,0.1-0.3,0.3-0.3L61.2,35.7L61.2,35.7z"></path>
<path class="st1" d="M43.3,59.4c0.6-0.1,1.1-0.1,1.7,0H43.3z"></path>
<path class="st1" d="M37.8,40h-2c-0.3,0-0.3-0.1-0.3-0.4c0.1-0.5,0.2-1,0.3-1.5c0-0.2,0.1-0.3,0.3-0.4c1.9-2.3,3.9-4.5,5.8-6.8  c0.3-0.4,0.7-0.6,1.2-0.6c0.3,0,0.7,0,1,0c0.3,0,0.4,0.1,0.3,0.4c-0.3,1.4-0.6,2.9-0.9,4.3c-0.2,0.8-0.4,1.7-0.6,2.6  c0,0.2,0,0.3,0.2,0.3H44c0.2,0,0.3,0,0.3,0.3c-0.1,0.5-0.2,1-0.3,1.5c0,0.2-0.2,0.3-0.3,0.3c0,0,0,0,0,0h-0.8  c-0.3,0-0.3,0.1-0.4,0.3c-0.1,0.6-0.3,1.2-0.4,1.8c0,0.2-0.2,0.3-0.3,0.3c0,0,0,0,0,0H40c-0.2,0-0.3-0.1-0.2-0.3  c0.1-0.6,0.3-1.2,0.4-1.7c0.1-0.3,0-0.4-0.3-0.4C39.1,40,38.5,40,37.8,40z M41.2,34.5c-0.4,0.4-0.7,0.7-1,1.2  c-0.6,0.7-1.3,1.5-1.9,2.3h2c0.2,0,0.4-0.1,0.4-0.3c0,0,0,0,0-0.1c0-0.2,0.2-0.7,0.2-1C41,35.9,41.2,35.2,41.2,34.5L41.2,34.5  L41.2,34.5z"></path>
<path class="st1" d="M44.2,44.5c-0.4,0-0.9-0.1-1.2-0.5c-0.1-0.2-0.4-0.2-0.6-0.1l-5,1.8l-2.3,0.9l-0.2,0.1c-0.2,0-0.3,0-0.4-0.2  s0.1-0.3,0.3-0.3l2.3-1l5.2-2.1c0.2-0.1,0.3-0.2,0.3-0.4c0.2-0.8,0.9-1.3,1.7-1.2c0.2,0.1,0.4-0.1,0.5-0.3c1.8-2.8,3.6-5.6,5.4-8.4  c0.3-0.5,0.6-1,0.9-1.4c0.1-0.1,0.2-0.3,0.4-0.2s0,0.3,0,0.4l-4.2,7.2c-0.6,1-1.2,2-1.8,3c-0.1,0.2-0.1,0.4,0,0.5  c0.4,0.7,0.1,1.6-0.7,2C44.7,44.5,44.5,44.5,44.2,44.5z"></path>
<path class="st1" d="M40.6,51.4c0,0.4-0.1,0.8-0.3,1.1c-0.1,0.2-0.4,0.3-0.6,0.2c-0.2,0-0.4-0.2-0.4-0.4c-0.1-0.5,0-0.9,0.3-1.3  c0.1-0.2,0.4-0.3,0.6-0.3c0.2,0.1,0.4,0.3,0.4,0.5C40.6,51.3,40.6,51.4,40.6,51.4z"></path>
<text transform="matrix(1 0 0 1 39.62 57.01)" class="st1 st2 st3">SERVICE</text>
<path class="st1" d="M40.2,27.3c0-0.2,2.6-0.9,5.4-0.7c0.5,0.1,2,0.3,2,0.4C47.5,27.5,40.2,27.7,40.2,27.3z"></path>
<path class="st1" d="M41.3,59c0-0.3,6-0.4,6.1-0.1c-0.9,0.4-1.9,0.6-2.9,0.5h-1.2C42.7,59.4,42,59.3,41.3,59z"></path>
</svg>