<svg xmlns="http://www.w3.org/2000/svg" xmlns:xlink="http://www.w3.org/1999/xlink" id="Layer_1" x="0px" y="0px" viewBox="0 0 90 90" style="enable-background:new 0 0 90 90;" xml:space="preserve">
<style type="text/css">
	.st0{fill:#FB9301;}
	.st1{fill:#FFFFFF;}
</style>
<path class="st0" d="M5.7,39.9L35.3,5.7c3.7-4.3,10.2-4.8,14.5-1L84,34.2c4.3,3.7,4.8,10.2,1,14.5L55.4,83c-3.7,4.3-10.2,4.8-14.5,1  L6.7,54.4C2.4,50.7,2,44.2,5.7,39.9z"></path>
<path class="st1" d="M45.8,55.2v2.1c0,0.4-0.2,0.7-0.5,0.7s-0.5-0.3-0.5-0.7v-4.2c0-0.3-0.1-0.5-0.4-0.5c-0.2-0.1-0.5-0.2-0.7-0.3  c-1.2-0.7-2.4-1.3-3.6-2c-0.2-0.1-0.4-0.2-0.7-0.1l-9.5,2.5c-0.8,0.1-1.4,0.8-1.4,1.7c-0.1,1-0.2,2-0.4,3c0,0.4-0.3,0.6-0.6,0.6  s-0.5-0.3-0.5-0.7c0.1-1.1,0.2-2.2,0.4-3.3c0.2-1.2,1.1-2.1,2.2-2.3l8.3-2.2c0.3-0.1,0.6-0.2,1-0.3s0.4-0.2,0.3-0.5  c-0.1-0.7-0.1-1.3-0.2-2c-0.1-0.3,0.1-0.7,0.4-0.8c0.3-0.1,0.5-0.2,0.7-0.3c0.5-0.3,0.6-0.7,0.1-1.1c-1-0.9-1.7-2.2-1.7-3.5  c-0.2-1.4-0.3-2.7-0.5-4.1v-0.2c0-0.3,0.2-0.6,0.5-0.6c0,0,0,0,0,0l0,0c0.3,0,0.5,0.1,0.6,0.4c0,0,0,0,0,0.1c0.1,1,0.2,1.9,0.4,2.9  c0.1,0.7,0.2,1.5,0.3,2.2c0.2,0.8,0.6,1.6,1.3,2.1l3,2.1c0.8,0.6,1.8,0.6,2.5,0c1-0.7,1.9-1.4,2.9-2c0.9-0.6,1.4-1.6,1.5-2.7  c0.2-1.5,0.3-2.9,0.4-4.4v-0.1c0-0.3,0.3-0.5,0.6-0.5c0,0,0,0,0,0l0,0c0.3,0,0.5,0.2,0.5,0.5c0,0,0,0,0,0l0,0c0,0.5-0.1,1-0.1,1.6  c-0.1,1.1-0.2,2.2-0.3,3.3c-0.2,1.3-0.9,2.4-1.9,3.2c-0.4,0.3-0.4,0.6,0,0.9s0.6,0.3,0.9,0.5c0.3,0.1,0.5,0.4,0.4,0.7  c0,0.6,0,1.2-0.1,1.8c0,0.4,0.1,0.5,0.4,0.6c3,0.8,5.9,1.6,8.9,2.4c1.4,0.2,2.4,1.5,2.4,2.9c0.1,0.9,0.3,1.9,0.4,2.8  c0.1,0.4-0.1,0.7-0.4,0.8s-0.6-0.1-0.7-0.6l-0.5-3.3c-0.1-0.7-0.6-1.3-1.3-1.4L51,50.2c-0.2-0.1-0.4,0-0.5,0.1l-3.7,2.1  c-0.2,0.1-0.4,0.2-0.6,0.3c-0.4,0.1-0.5,0.3-0.5,0.7L45.8,55.2L45.8,55.2z M44.7,50.5L44.7,50.5c0-0.1,0-0.2,0-0.3  c0.1-0.7-0.1-1-0.8-1.2c-1.2-0.4-2.3-0.9-3.4-1.4c-0.4-0.2-0.4-0.2-0.3,0.3s0.1,0.7,0.1,1c0,0.2,0.1,0.5,0.3,0.5  c0.9,0.5,1.8,1,2.7,1.5l1.2,0.6c0.2,0.1,0.3,0.1,0.3-0.2L44.7,50.5z M45.8,50.4v0.9c0,0.3,0.1,0.3,0.4,0.2c1.3-0.7,2.5-1.4,3.8-2.1  c0.1-0.1,0.2-0.2,0.2-0.3c0-0.4,0-0.7,0.1-1.1c0.1-0.4-0.1-0.3-0.4-0.2c-1,0.4-2.1,0.8-3.1,1.3c-0.3,0.1-0.8,0.2-0.9,0.4  S45.8,50.1,45.8,50.4z M45.3,48.3c0.2,0,0.4-0.1,0.7-0.2l2.2-0.9c1-0.4,0.7-0.2,0.7-1.1c0-0.3-0.2-0.3-0.4-0.2  c-0.4,0.3-0.8,0.6-1.2,0.9c-1.1,0.8-2.6,0.8-3.8,0L42.3,46c-0.7-0.5-0.7-0.5-0.9,0.4c-0.1,0.2,0,0.4,0.3,0.5l0,0l3,1.3  C44.9,48.2,45.1,48.3,45.3,48.3z"></path>
<path class="st1" d="M47,35.2h-3.3v0.1l0.6,0.4c0.3,0.3,0.4,0.6,0.2,0.8c-0.2,0.2-0.5,0.3-0.8,0.1c0,0,0,0,0,0l-0.1-0.1  c-0.9-0.7-2.1-0.8-3.1-0.2c-0.6,0.3-1,0-0.9-0.6c0-0.3-0.2-0.2-0.3-0.2L37,35.7c-0.9,0.2-1.7-0.4-1.8-1.3c0,0,0,0,0,0  c0-0.1,0-0.2,0-0.3c0-0.3,0.1-0.6,0.3-0.8c0.5-0.6,1-1.3,1.5-1.9c0.2-0.2,0.3-0.5,0.3-0.8c0-1.5,0-3,0.1-4.4c0-2,1.5-3.6,3.4-3.7  c1.8-0.3,3.6-0.4,5.5-0.4c1.3,0.1,2.6,0.2,3.9,0.4c1.7,0.3,3,1.8,3,3.5c0,1.5,0,3.1,0.1,4.6c0,0.3,0.1,0.6,0.3,0.8  c0.5,0.6,0.9,1.2,1.4,1.8c0.5,0.5,0.6,1.2,0.3,1.7c-0.3,0.6-0.9,0.9-1.6,0.8c-0.6,0-1.3-0.1-1.9-0.2h-0.3c-0.3,0-0.5,0-0.4,0.4  c0,0.3-0.1,0.5-0.4,0.6c0,0,0,0,0,0c-0.1,0-0.2,0-0.3-0.1c-0.3-0.1-0.7-0.3-1-0.3c-0.7-0.2-1.5,0-2.1,0.4l-0.3,0.2  c-0.2,0.2-0.6,0.1-0.7-0.1l0,0C46,36.3,46,36,46.3,35.8c0,0,0,0,0,0l0,0c0.2-0.2,0.4-0.3,0.7-0.5L47,35.2z M45.3,23.2h-1.1  c-1.1,0.1-2.3,0.2-3.4,0.3c-1.4,0.1-2.5,1.2-2.4,2.6v0c0,1.5-0.1,3.1-0.1,4.6c0,0.4-0.1,0.8-0.4,1.1c-0.5,0.6-1,1.3-1.5,1.9  c-0.1,0.2-0.3,0.3-0.2,0.6c0.1,0.2,0.4,0.3,0.6,0.2c1.5-0.2,3.1-0.3,4.7-0.5c2.6-0.2,5.1-0.2,7.7,0c1.5,0.1,2.9,0.3,4.4,0.4  c0.2,0.1,0.5,0,0.6-0.3c0.1-0.2,0-0.4-0.2-0.5c-0.5-0.7-1.1-1.3-1.6-2c-0.2-0.2-0.3-0.6-0.3-0.9c0-1.6,0-3.3-0.1-5  c0-1.2-0.9-2.1-2.1-2.3C48.4,23.3,46.9,23.2,45.3,23.2L45.3,23.2z"></path>
<path class="st1" d="M62.6,41.1l-1.4,1.4c-0.1,0.1-0.2,0.3-0.4,0.4c-0.2,0.2-0.5,0.3-0.8,0.1l-0.1-0.1l-1.7-1.7  c-0.3-0.2-0.3-0.6-0.1-0.8c0,0,0.1-0.1,0.1-0.1l1.5-1.6c0.1-0.1,0.2-0.1,0.1-0.2s-0.2-0.1-0.3-0.1c-1.8-0.1-3.3,1.2-3.5,3  c0,0.4,0,0.9,0.2,1.3c0.3,0.5,0.1,1-0.3,1.3c-1.1,1-2.1,2.1-3.2,3.1c-0.1,0.1-0.2,0.2-0.3,0.3c-0.2,0.1-0.5,0-0.6-0.1  c-0.2-0.2-0.2-0.4-0.1-0.6c0.1-0.1,0.2-0.2,0.3-0.3c0.9-1,1.9-1.9,2.8-2.8c0.2-0.2,0.3-0.5,0.2-0.7c-0.6-2.3,0.8-4.7,3.1-5.3  c0,0,0,0,0,0l0.4-0.1c0.8-0.2,1.7,0,2.5,0.3c0.3,0.1,0.5,0.4,0.4,0.7c0,0,0,0,0,0c0,0.1-0.1,0.2-0.2,0.3c-0.6,0.6-1.2,1.2-1.8,1.8  c-0.2,0.2-0.2,0.3,0,0.5s0.4,0.4,0.6,0.6s0.3,0.2,0.5,0c0.6-0.6,1.2-1.2,1.7-1.7s0.9-0.4,1.2,0.3c0.8,2.3-0.3,4.8-2.6,5.6  c0,0,0,0,0,0c-0.5,0.2-1,0.3-1.5,0.3c-0.4,0-0.7,0-1-0.2c-0.2-0.1-0.5,0-0.6,0.2c-0.9,0.9-1.9,1.9-2.8,2.8l-0.2,0.2  c-0.2,0.2-0.6,0.2-0.8,0c-0.2-0.2-0.2-0.6,0-0.8c0-0.1,0.1-0.1,0.2-0.2c1.1-1.1,2.2-2.2,3.3-3.3c0.2-0.3,0.7-0.4,1-0.2  c1.7,0.6,3.5-0.2,4.2-1.8c0,0,0,0,0,0c0.2-0.5,0.3-1,0.2-1.5L62.6,41.1z"></path>
<path class="st1" d="M33.2,42.4c-0.1,0.4,0.1,0.7,0.4,1c1.5,1.4,2.9,2.9,4.3,4.3c0.2,0.1,0.3,0.3,0.3,0.6c0,0.1-0.1,0.3-0.2,0.4  c-0.4,0.3-1,0.3-1.5,0l-3-3c-0.4-0.4-0.9-0.9-1.3-1.3c-0.1-0.2-0.4-0.3-0.6-0.2c-0.6,0.1-1.2-0.1-1.6-0.6c-0.6-0.7-1.2-1.2-1.8-1.8  c-0.4-0.4-0.4-0.7,0-1.1l1.5-1.5c0.2-0.3,0.5-0.4,0.8-0.2c0.1,0,0.1,0.1,0.2,0.2c0.8,0.7,1.5,1.5,2.3,2.3  C33.3,41.6,33.2,42,33.2,42.4z M32.1,42.5c0.1-0.3-0.1-0.6-0.3-0.7c-0.3-0.3-0.6-0.6-0.9-0.9c-0.7-0.7-0.7-0.7-1.4,0l0,0  c0,0-0.1,0.2,0,0.3c0.5,0.5,1.1,1.1,1.6,1.6c0.3,0.2,0.6,0.1,0.9,0.1C32.3,42.8,32,42.6,32.1,42.5z"></path>
<path class="st1" d="M54.5,58h-2.4c-0.5,0-0.7-0.2-0.7-0.7v-1.9c0-0.6,0.2-0.7,0.7-0.7H57c0.5,0,0.7,0.2,0.7,0.8s0,1.2,0,1.9  S57.5,58,57,58C57,58,54.5,58,54.5,58z M54.5,57h1.6c0.3,0,0.5-0.1,0.4-0.5v-0.3c0-0.3-0.1-0.5-0.5-0.4h-2.9c-0.8,0-0.7-0.1-0.8,0.8  c0,0.3,0.1,0.4,0.4,0.4C53.4,57,54,57,54.5,57z"></path>
<path class="st1" d="M45.2,43.5c-0.7,0-1.3-0.4-1.6-1.1c-0.2-0.2-0.1-0.6,0.1-0.8h0.1c0.3-0.2,0.5,0,0.8,0.3  c0.2,0.5,0.7,0.7,1.2,0.4c0.2-0.1,0.4-0.2,0.4-0.4c0.2-0.3,0.5-0.4,0.8-0.3c0.3,0.1,0.4,0.5,0.2,0.7c0,0,0,0,0,0c0,0,0,0.1,0,0.1  C46.7,43.2,46,43.6,45.2,43.5z"></path>
<path class="st1" d="M49.5,37.7c0,0.6-0.4,1-1,1s-1-0.4-1-1s0.4-1,1-1S49.5,37.1,49.5,37.7z"></path>
<path class="st1" d="M42.1,38.6c-0.6,0-1-0.4-1-1s0.4-1,1-1s1,0.4,1,1S42.7,38.6,42.1,38.6z"></path>
<path class="st1" d="M45.1,31.6H41c-0.6,0-0.8-0.2-0.8-0.8v-2.6c0-0.5,0.2-0.7,0.7-0.7h8.5c0.5,0,0.7,0.2,0.7,0.7v2.7  c0,0.5-0.2,0.7-0.7,0.7H45.1z M45.2,28.6h-3.5c-0.3,0-0.4,0.1-0.4,0.4c0,0.4,0,0.7,0,1.1c0,0.4,0.1,0.5,0.5,0.5h6.8  c0.3,0,0.4-0.1,0.4-0.4c0-0.4,0-0.8,0-1.1c0-0.3-0.1-0.4-0.4-0.4L45.2,28.6z"></path>
</svg>