<svg xmlns="http://www.w3.org/2000/svg" xmlns:xlink="http://www.w3.org/1999/xlink" id="Layer_1" x="0px" y="0px" viewBox="0 0 90 90" style="enable-background:new 0 0 90 90;" xml:space="preserve">
<style type="text/css">
	.st0{fill:#FB9301;}
	.st1{fill:#FFFFFF;}
</style>
<path class="st0" d="M5.7,39.9L35.3,5.7c3.7-4.3,10.2-4.8,14.5-1L84,34.2c4.3,3.7,4.8,10.2,1,14.5L55.4,83c-3.7,4.3-10.2,4.8-14.5,1  L6.7,54.4C2.4,50.7,2,44.2,5.7,39.9z"></path>
<path class="st1" d="M26.9,43.1c0-3,0.6-5.9,2-8.6c0.3-0.7,1.1-1,1.7-0.7c0.5,0.2,0.8,0.7,0.8,1.3c0,0.3-0.1,0.5-0.2,0.7  c-3.9,7.7-0.8,17.1,6.9,21s17.1,0.8,21-6.9c0.6-1.2,1-2.4,1.3-3.7c1.9-8.4-3.4-16.7-11.8-18.6c0,0,0,0,0,0l-0.3-0.1  c-5.1-1.1-10.3,0.4-14,4.1c-0.4,0.6-1.3,0.7-1.8,0.3c-0.6-0.4-0.7-1.3-0.3-1.8c0.1-0.1,0.2-0.2,0.2-0.3c2.3-2.3,5.1-3.9,8.2-4.6  c9.7-2.5,19.6,3.3,22.2,13s-3.3,19.6-13,22.2c-9.7,2.5-19.6-3.3-22.2-13c-0.1-0.3-0.2-0.7-0.2-1C27,45.3,26.9,44.2,26.9,43.1z"></path>
<path class="st1" d="M46.4,37.2v4.7c0,0.2,0.1,0.4,0.3,0.5c1.9,1.5,3.8,3,5.7,4.5c0.4,0.3,0.7,0.8,0.5,1.3c-0.1,0.5-0.5,0.9-1,1  c-0.4,0.1-0.8,0-1.1-0.2l-6.5-5.2c-0.3-0.2-0.5-0.6-0.5-1V32.5c0-0.7,0.5-1.3,1.2-1.3h0c0.7,0,1.3,0.6,1.3,1.3c0,0,0,0,0,0  L46.4,37.2L46.4,37.2z"></path>
</svg>